<?xml version="1.0" encoding="us-ascii" standalone="no"?><svg xmlns="http://www.w3.org/2000/svg" xmlns:xlink="http://www.w3.org/1999/xlink" contentStyleType="text/css" height="1008px" preserveAspectRatio="none" style="width:420px;height:1008px;background:#FFFFFF;" version="1.1" viewBox="0 0 420 1008" width="420px" zoomAndPan="magnify"><defs/><g><line style="stroke:#181818;stroke-width:0.5;stroke-dasharray:5.0,5.0;" x1="36" x2="36" y1="81.2969" y2="927.6172"/><line style="stroke:#181818;stroke-width:0.5;stroke-dasharray:5.0,5.0;" x1="187" x2="187" y1="81.2969" y2="927.6172"/><line style="stroke:#181818;stroke-width:0.5;stroke-dasharray:5.0,5.0;" x1="351" x2="351" y1="81.2969" y2="927.6172"/><text fill="#000000" font-family="sans-serif" font-size="14" lengthAdjust="spacing" textLength="57" x="5" y="77.9951">Librarian</text><ellipse cx="36.5" cy="13.5" fill="#E2E2F0" rx="8" ry="8" style="stroke:#181818;stroke-width:0.5;"/><path d="M36.5,21.5 L36.5,48.5 M23.5,29.5 L49.5,29.5 M36.5,48.5 L23.5,63.5 M36.5,48.5 L49.5,63.5 " fill="none" style="stroke:#181818;stroke-width:0.5;"/><text fill="#000000" font-family="sans-serif" font-size="14" lengthAdjust="spacing" textLength="57" x="5" y="939.6123">Librarian</text><ellipse cx="36.5" cy="951.4141" fill="#E2E2F0" rx="8" ry="8" style="stroke:#181818;stroke-width:0.5;"/><path d="M36.5,959.4141 L36.5,986.4141 M23.5,967.4141 L49.5,967.4141 M36.5,986.4141 L23.5,1001.4141 M36.5,986.4141 L49.5,1001.4141 " fill="none" style="stroke:#181818;stroke-width:0.5;"/><text fill="#000000" font-family="sans-serif" font-size="14" lengthAdjust="spacing" textLength="57" x="156" y="77.9951">Member</text><ellipse cx="187.5" cy="13.5" fill="#E2E2F0" rx="8" ry="8" style="stroke:#181818;stroke-width:0.5;"/><path d="M187.5,21.5 L187.5,48.5 M174.5,29.5 L200.5,29.5 M187.5,48.5 L174.5,63.5 M187.5,48.5 L200.5,63.5 " fill="none" style="stroke:#181818;stroke-width:0.5;"/><text fill="#000000" font-family="sans-serif" font-size="14" lengthAdjust="spacing" textLength="57" x="156" y="939.6123">Member</text><ellipse cx="187.5" cy="951.4141" fill="#E2E2F0" rx="8" ry="8" style="stroke:#181818;stroke-width:0.5;"/><path d="M187.5,959.4141 L187.5,986.4141 M174.5,967.4141 L200.5,967.4141 M187.5,986.4141 L174.5,1001.4141 M187.5,986.4141 L200.5,1001.4141 " fill="none" style="stroke:#181818;stroke-width:0.5;"/><rect fill="#E2E2F0" height="30.2969" rx="2.5" ry="2.5" style="stroke:#181818;stroke-width:0.5;" width="113" x="295" y="50"/><text fill="#000000" font-family="sans-serif" font-size="14" lengthAdjust="spacing" textLength="99" x="302" y="69.9951">Library System</text><rect fill="#E2E2F0" height="30.2969" rx="2.5" ry="2.5" style="stroke:#181818;stroke-width:0.5;" width="113" x="295" y="926.6172"/><text fill="#000000" font-family="sans-serif" font-size="14" lengthAdjust="spacing" textLength="99" x="302" y="946.6123">Library System</text><rect fill="#EEEEEE" height="3" style="stroke:#EEEEEE;stroke-width:1.0;" width="413" x="0" y="111.8633"/><line style="stroke:#000000;stroke-width:1.0;" x1="0" x2="413" y1="111.8633" y2="111.8633"/><line style="stroke:#000000;stroke-width:1.0;" x1="0" x2="413" y1="114.8633" y2="114.8633"/><rect fill="#EEEEEE" height="23.1328" style="stroke:#000000;stroke-width:2.0;" width="99" x="157" y="101.2969"/><text fill="#000000" font-family="sans-serif" font-size="13" font-weight="bold" lengthAdjust="spacing" textLength="80" x="163" y="117.3638">Add Books</text><polygon fill="#181818" points="339.5,151.5625,349.5,155.5625,339.5,159.5625,343.5,155.5625" style="stroke:#181818;stroke-width:1.0;"/><line style="stroke:#181818;stroke-width:1.0;" x1="36.5" x2="345.5" y1="155.5625" y2="155.5625"/><text fill="#000000" font-family="sans-serif" font-size="13" lengthAdjust="spacing" textLength="106" x="43.5" y="150.4966">Add book details</text><polygon fill="#181818" points="47.5,180.6953,37.5,184.6953,47.5,188.6953,43.5,184.6953" style="stroke:#181818;stroke-width:1.0;"/><line style="stroke:#181818;stroke-width:1.0;" x1="41.5" x2="350.5" y1="184.6953" y2="184.6953"/><text fill="#000000" font-family="sans-serif" font-size="13" lengthAdjust="spacing" textLength="140" x="53.5" y="179.6294">Confirm book addition</text><rect fill="#EEEEEE" height="3" style="stroke:#EEEEEE;stroke-width:1.0;" width="413" x="0" y="213.2617"/><line style="stroke:#000000;stroke-width:1.0;" x1="0" x2="413" y1="213.2617" y2="213.2617"/><line style="stroke:#000000;stroke-width:1.0;" x1="0" x2="413" y1="216.2617" y2="216.2617"/><rect fill="#EEEEEE" height="23.1328" style="stroke:#000000;stroke-width:2.0;" width="128" x="142.5" y="202.6953"/><text fill="#000000" font-family="sans-serif" font-size="13" font-weight="bold" lengthAdjust="spacing" textLength="109" x="148.5" y="218.7622">Remove Books</text><polygon fill="#181818" points="339.5,252.9609,349.5,256.9609,339.5,260.9609,343.5,256.9609" style="stroke:#181818;stroke-width:1.0;"/><line style="stroke:#181818;stroke-width:1.0;" x1="36.5" x2="345.5" y1="256.9609" y2="256.9609"/><text fill="#000000" font-family="sans-serif" font-size="13" lengthAdjust="spacing" textLength="133" x="43.5" y="251.895">Remove book details</text><polygon fill="#181818" points="47.5,282.0938,37.5,286.0938,47.5,290.0938,43.5,286.0938" style="stroke:#181818;stroke-width:1.0;"/><line style="stroke:#181818;stroke-width:1.0;" x1="41.5" x2="350.5" y1="286.0938" y2="286.0938"/><text fill="#000000" font-family="sans-serif" font-size="13" lengthAdjust="spacing" textLength="141" x="53.5" y="281.0278">Confirm book removal</text><rect fill="#EEEEEE" height="3" style="stroke:#EEEEEE;stroke-width:1.0;" width="413" x="0" y="314.6602"/><line style="stroke:#000000;stroke-width:1.0;" x1="0" x2="413" y1="314.6602" y2="314.6602"/><line style="stroke:#000000;stroke-width:1.0;" x1="0" x2="413" y1="317.6602" y2="317.6602"/><rect fill="#EEEEEE" height="23.1328" style="stroke:#000000;stroke-width:2.0;" width="107" x="153" y="304.0938"/><text fill="#000000" font-family="sans-serif" font-size="13" font-weight="bold" lengthAdjust="spacing" textLength="88" x="159" y="320.1606">Issue Books</text><polygon fill="#181818" points="339.5,354.3594,349.5,358.3594,339.5,362.3594,343.5,358.3594" style="stroke:#181818;stroke-width:1.0;"/><line style="stroke:#181818;stroke-width:1.0;" x1="36.5" x2="345.5" y1="358.3594" y2="358.3594"/><text fill="#000000" font-family="sans-serif" font-size="13" lengthAdjust="spacing" textLength="144" x="43.5" y="353.2935">Check book availability</text><polygon fill="#181818" points="47.5,383.4922,37.5,387.4922,47.5,391.4922,43.5,387.4922" style="stroke:#181818;stroke-width:1.0;"/><line style="stroke:#181818;stroke-width:1.0;" x1="41.5" x2="350.5" y1="387.4922" y2="387.4922"/><text fill="#000000" font-family="sans-serif" font-size="13" lengthAdjust="spacing" textLength="92" x="53.5" y="382.4263">Book available</text><polygon fill="#181818" points="339.5,412.625,349.5,416.625,339.5,420.625,343.5,416.625" style="stroke:#181818;stroke-width:1.0;"/><line style="stroke:#181818;stroke-width:1.0;" x1="36.5" x2="345.5" y1="416.625" y2="416.625"/><text fill="#000000" font-family="sans-serif" font-size="13" lengthAdjust="spacing" textLength="144" x="43.5" y="411.5591">Issue book to member</text><polygon fill="#181818" points="47.5,441.7578,37.5,445.7578,47.5,449.7578,43.5,445.7578" style="stroke:#181818;stroke-width:1.0;"/><line style="stroke:#181818;stroke-width:1.0;" x1="41.5" x2="350.5" y1="445.7578" y2="445.7578"/><text fill="#000000" font-family="sans-serif" font-size="13" lengthAdjust="spacing" textLength="122" x="53.5" y="440.6919">Confirm book issue</text><polygon fill="#181818" points="175.5,470.8906,185.5,474.8906,175.5,478.8906,179.5,474.8906" style="stroke:#181818;stroke-width:1.0;"/><line style="stroke:#181818;stroke-width:1.0;" x1="36.5" x2="181.5" y1="474.8906" y2="474.8906"/><text fill="#000000" font-family="sans-serif" font-size="13" lengthAdjust="spacing" textLength="127" x="43.5" y="469.8247">Provide issued book</text><rect fill="#EEEEEE" height="3" style="stroke:#EEEEEE;stroke-width:1.0;" width="413" x="0" y="503.457"/><line style="stroke:#000000;stroke-width:1.0;" x1="0" x2="413" y1="503.457" y2="503.457"/><line style="stroke:#000000;stroke-width:1.0;" x1="0" x2="413" y1="506.457" y2="506.457"/><rect fill="#EEEEEE" height="23.1328" style="stroke:#000000;stroke-width:2.0;" width="118" x="147.5" y="492.8906"/><text fill="#000000" font-family="sans-serif" font-size="13" font-weight="bold" lengthAdjust="spacing" textLength="99" x="153.5" y="508.9575">Return Books</text><polygon fill="#181818" points="47.5,543.1563,37.5,547.1563,47.5,551.1563,43.5,547.1563" style="stroke:#181818;stroke-width:1.0;"/><line style="stroke:#181818;stroke-width:1.0;" x1="41.5" x2="186.5" y1="547.1563" y2="547.1563"/><text fill="#000000" font-family="sans-serif" font-size="13" lengthAdjust="spacing" textLength="77" x="53.5" y="542.0903">Return book</text><polygon fill="#181818" points="339.5,572.2891,349.5,576.2891,339.5,580.2891,343.5,576.2891" style="stroke:#181818;stroke-width:1.0;"/><line style="stroke:#181818;stroke-width:1.0;" x1="36.5" x2="345.5" y1="576.2891" y2="576.2891"/><text fill="#000000" font-family="sans-serif" font-size="13" lengthAdjust="spacing" textLength="126" x="43.5" y="571.2231">Update book status</text><polygon fill="#181818" points="47.5,601.4219,37.5,605.4219,47.5,609.4219,43.5,605.4219" style="stroke:#181818;stroke-width:1.0;"/><line style="stroke:#181818;stroke-width:1.0;" x1="41.5" x2="350.5" y1="605.4219" y2="605.4219"/><text fill="#000000" font-family="sans-serif" font-size="13" lengthAdjust="spacing" textLength="128" x="53.5" y="600.356">Confirm book return</text><rect fill="#EEEEEE" height="3" style="stroke:#EEEEEE;stroke-width:1.0;" width="413" x="0" y="633.9883"/><line style="stroke:#000000;stroke-width:1.0;" x1="0" x2="413" y1="633.9883" y2="633.9883"/><line style="stroke:#000000;stroke-width:1.0;" x1="0" x2="413" y1="636.9883" y2="636.9883"/><rect fill="#EEEEEE" height="23.1328" style="stroke:#000000;stroke-width:2.0;" width="119" x="147" y="623.4219"/><text fill="#000000" font-family="sans-serif" font-size="13" font-weight="bold" lengthAdjust="spacing" textLength="100" x="153" y="639.4888">Search Books</text><polygon fill="#181818" points="339.5,673.6875,349.5,677.6875,339.5,681.6875,343.5,677.6875" style="stroke:#181818;stroke-width:1.0;"/><line style="stroke:#181818;stroke-width:1.0;" x1="187.5" x2="345.5" y1="677.6875" y2="677.6875"/><text fill="#000000" font-family="sans-serif" font-size="13" lengthAdjust="spacing" textLength="108" x="194.5" y="672.6216">Search for books</text><polygon fill="#181818" points="198.5,702.8203,188.5,706.8203,198.5,710.8203,194.5,706.8203" style="stroke:#181818;stroke-width:1.0;"/><line style="stroke:#181818;stroke-width:1.0;" x1="192.5" x2="350.5" y1="706.8203" y2="706.8203"/><text fill="#000000" font-family="sans-serif" font-size="13" lengthAdjust="spacing" textLength="140" x="204.5" y="701.7544">Display search results</text><rect fill="#EEEEEE" height="3" style="stroke:#EEEEEE;stroke-width:1.0;" width="413" x="0" y="735.3867"/><line style="stroke:#000000;stroke-width:1.0;" x1="0" x2="413" y1="735.3867" y2="735.3867"/><line style="stroke:#000000;stroke-width:1.0;" x1="0" x2="413" y1="738.3867" y2="738.3867"/><rect fill="#EEEEEE" height="23.1328" style="stroke:#000000;stroke-width:2.0;" width="147" x="133" y="724.8203"/><text fill="#000000" font-family="sans-serif" font-size="13" font-weight="bold" lengthAdjust="spacing" textLength="128" x="139" y="740.8872">Register Member</text><polygon fill="#181818" points="339.5,775.0859,349.5,779.0859,339.5,783.0859,343.5,779.0859" style="stroke:#181818;stroke-width:1.0;"/><line style="stroke:#181818;stroke-width:1.0;" x1="36.5" x2="345.5" y1="779.0859" y2="779.0859"/><text fill="#000000" font-family="sans-serif" font-size="13" lengthAdjust="spacing" textLength="130" x="43.5" y="774.02">Add member details</text><polygon fill="#181818" points="47.5,804.2188,37.5,808.2188,47.5,812.2188,43.5,808.2188" style="stroke:#181818;stroke-width:1.0;"/><line style="stroke:#181818;stroke-width:1.0;" x1="41.5" x2="350.5" y1="808.2188" y2="808.2188"/><text fill="#000000" font-family="sans-serif" font-size="13" lengthAdjust="spacing" textLength="186" x="53.5" y="803.1528">Confirm member registration</text><rect fill="#EEEEEE" height="3" style="stroke:#EEEEEE;stroke-width:1.0;" width="413" x="0" y="836.7852"/><line style="stroke:#000000;stroke-width:1.0;" x1="0" x2="413" y1="836.7852" y2="836.7852"/><line style="stroke:#000000;stroke-width:1.0;" x1="0" x2="413" y1="839.7852" y2="839.7852"/><rect fill="#EEEEEE" height="23.1328" style="stroke:#000000;stroke-width:2.0;" width="176" x="118.5" y="826.2188"/><text fill="#000000" font-family="sans-serif" font-size="13" font-weight="bold" lengthAdjust="spacing" textLength="157" x="124.5" y="842.2856">View Member Details</text><polygon fill="#181818" points="339.5,876.4844,349.5,880.4844,339.5,884.4844,343.5,880.4844" style="stroke:#181818;stroke-width:1.0;"/><line style="stroke:#181818;stroke-width:1.0;" x1="36.5" x2="345.5" y1="880.4844" y2="880.4844"/><text fill="#000000" font-family="sans-serif" font-size="13" lengthAdjust="spacing" textLength="157" x="43.5" y="875.4185">Retrieve member details</text><polygon fill="#181818" points="47.5,905.6172,37.5,909.6172,47.5,913.6172,43.5,909.6172" style="stroke:#181818;stroke-width:1.0;"/><line style="stroke:#181818;stroke-width:1.0;" x1="41.5" x2="350.5" y1="909.6172" y2="909.6172"/><text fill="#000000" font-family="sans-serif" font-size="13" lengthAdjust="spacing" textLength="151" x="53.5" y="904.5513">Display member details</text><!--SRC=[bPB1JiCm44Jl_efLx_n0fI3Hze844gA2-oPswQfE7AqtHVbx7Dj9IzNIS4laDpExzc0bZc7nGYKZ4pOBG0zs_5EOZbzDNHgEPtNyLAf55ggenKP6UG_Rtekf8-VZfr950KzQmygvWuUYK9CtF3nc29OHAGC2sWYIzIgV1EOaMCBQDJlYEg6eDGcv9cQyczeTpRsOJFqtYGSPsXZqx7rtDsUzDzKXJtaCALYI9UblPAtEE6jkMARSQ2bkV8KPizEW- -sPn05yOtSaRHAJ7Y1VfdJSd9RCWekOJ4NLzPa_MesIX_Q2qisyxS4t3h8roDN-sY1JHaPseQQ3-ZnXsdD3lhNOWqyi6zzPyNdLBmeyGwhutmtDXlEQas6E0OnJKp_9V8zfc-JqLs65oOJApeeUzxo0Vm00]--></g></svg>