<?xml version="1.0" encoding="us-ascii" standalone="no"?><svg xmlns="http://www.w3.org/2000/svg" xmlns:xlink="http://www.w3.org/1999/xlink" contentStyleType="text/css" height="518px" preserveAspectRatio="none" style="width:343px;height:518px;background:#FFFFFF;" version="1.1" viewBox="0 0 343 518" width="343px" zoomAndPan="magnify"><defs/><g><!--cluster LibraryManagementSystem--><g id="cluster_LibraryManagementSystem"><rect fill="none" height="505" rx="2.5" ry="2.5" style="stroke:#181818;stroke-width:1.0;" width="230" x="107" y="7"/><text fill="#000000" font-family="sans-serif" font-size="14" font-weight="bold" lengthAdjust="spacing" textLength="214" x="115" y="21.9951">LibraryManagementSystem</text></g><g id="elem_UC1"><ellipse cx="222.2248" cy="276.145" fill="#F1F1F1" rx="63.7248" ry="15.145" style="stroke:#181818;stroke-width:0.5;"/><text fill="#000000" font-family="sans-serif" font-size="14" lengthAdjust="spacing" textLength="75" x="181.7248" y="279.8925">Add Books</text></g><g id="elem_UC2"><ellipse cx="222.1066" cy="59.8213" fill="#F1F1F1" rx="74.6066" ry="17.3213" style="stroke:#181818;stroke-width:0.5;"/><text fill="#000000" font-family="sans-serif" font-size="14" lengthAdjust="spacing" textLength="105" x="166.6066" y="63.5689">Remove Books</text></g><g id="elem_UC3"><ellipse cx="222.1678" cy="410.8336" fill="#F1F1F1" rx="67.1678" ry="15.8336" style="stroke:#181818;stroke-width:0.5;"/><text fill="#000000" font-family="sans-serif" font-size="14" lengthAdjust="spacing" textLength="85" x="176.6678" y="414.5811">Issue Books</text></g><g id="elem_UC4"><ellipse cx="221.8049" cy="343.061" fill="#F1F1F1" rx="70.8049" ry="16.561" style="stroke:#181818;stroke-width:0.5;"/><text fill="#000000" font-family="sans-serif" font-size="14" lengthAdjust="spacing" textLength="95" x="171.3049" y="346.8085">Return Books</text></g><g id="elem_UC5"><ellipse cx="222.1781" cy="479.1356" fill="#F1F1F1" rx="71.1781" ry="16.6356" style="stroke:#181818;stroke-width:0.5;"/><text fill="#000000" font-family="sans-serif" font-size="14" lengthAdjust="spacing" textLength="96" x="171.1781" y="482.8832">Search Books</text></g><g id="elem_UC6"><ellipse cx="222.1963" cy="130.9393" fill="#F1F1F1" rx="80.1963" ry="18.4393" style="stroke:#181818;stroke-width:0.5;"/><text fill="#000000" font-family="sans-serif" font-size="14" lengthAdjust="spacing" textLength="119" x="161.1039" y="134.2979">Register Member</text></g><g id="elem_UC7"><ellipse cx="221.9996" cy="205.0999" fill="#F1F1F1" rx="90.9996" ry="20.5999" style="stroke:#181818;stroke-width:0.5;"/><text fill="#000000" font-family="sans-serif" font-size="14" lengthAdjust="spacing" textLength="144" x="149.9996" y="207.9466">View Member Details</text></g><!--entity librarian--><g id="elem_librarian"><ellipse cx="34.5" cy="211.5" fill="#F1F1F1" rx="8" ry="8" style="stroke:#181818;stroke-width:0.5;"/><path d="M34.5,219.5 L34.5,246.5 M21.5,227.5 L47.5,227.5 M34.5,246.5 L21.5,261.5 M34.5,246.5 L47.5,261.5 " fill="none" style="stroke:#181818;stroke-width:0.5;"/><text fill="#000000" font-family="sans-serif" font-size="14" lengthAdjust="spacing" textLength="57" x="6" y="275.9951">Librarian</text></g><!--entity member--><g id="elem_member"><ellipse cx="34.5" cy="381.5" fill="#F1F1F1" rx="8" ry="8" style="stroke:#181818;stroke-width:0.5;"/><path d="M34.5,389.5 L34.5,416.5 M21.5,397.5 L47.5,397.5 M34.5,416.5 L21.5,431.5 M34.5,416.5 L47.5,431.5 " fill="none" style="stroke:#181818;stroke-width:0.5;"/><text fill="#000000" font-family="sans-serif" font-size="14" lengthAdjust="spacing" textLength="57" x="6" y="445.9951">Member</text></g><!--link librarian to UC1--><g id="link_librarian_UC1"><path d="M63.27,246.24 C91.87,251.64 131.1539,259.0481 165.8339,265.5881 " fill="none" id="librarian-to-UC1" style="stroke:#181818;stroke-width:1.0;"/><polygon fill="#181818" points="171.73,266.7,163.6271,261.1014,166.8166,265.7734,162.1446,268.9629,171.73,266.7" style="stroke:#181818;stroke-width:1.0;"/></g><!--link librarian to UC2--><g id="link_librarian_UC2"><path d="M42.55,202.98 C50.63,169.89 67.1,122.98 99,95 C114.66,81.27 129.567,74.3961 149.477,69.3061 " fill="none" id="librarian-to-UC2" style="stroke:#181818;stroke-width:1.0;"/><polygon fill="#181818" points="155.29,67.82,145.5797,66.1738,150.4458,69.0584,147.5612,73.9245,155.29,67.82" style="stroke:#181818;stroke-width:1.0;"/></g><!--link librarian to UC3--><g id="link_librarian_UC3"><path d="M43.98,279.26 C52.72,309.95 69.38,351.9 99,377 C116.11,391.5 133.1063,398.523 154.3963,403.313 " fill="none" id="librarian-to-UC3" style="stroke:#181818;stroke-width:1.0;"/><polygon fill="#181818" points="160.25,404.63,152.3475,398.752,155.3719,403.5325,150.5915,406.5569,160.25,404.63" style="stroke:#181818;stroke-width:1.0;"/></g><!--link librarian to UC4--><g id="link_librarian_UC4"><path d="M63.18,277.09 C73.38,288.36 85.71,299.93 99,308 C118.68,319.95 136.7958,326.5382 158.2458,331.8482 " fill="none" id="librarian-to-UC4" style="stroke:#181818;stroke-width:1.0;"/><polygon fill="#181818" points="164.07,333.29,156.2949,327.2445,159.2165,332.0885,154.3725,335.0101,164.07,333.29" style="stroke:#181818;stroke-width:1.0;"/></g><!--link librarian to UC6--><g id="link_librarian_UC6"><path d="M61.36,202.68 C71.73,189.77 84.64,176.29 99,167 C116.71,155.54 132.3895,149.1916 152.3595,143.7716 " fill="none" id="librarian-to-UC6" style="stroke:#181818;stroke-width:1.0;"/><polygon fill="#181818" points="158.15,142.2,148.4165,140.697,153.3246,143.5097,150.5119,148.4177,158.15,142.2" style="stroke:#181818;stroke-width:1.0;"/></g><!--link librarian to UC7--><g id="link_librarian_UC7"><path d="M63.27,235.61 C86.82,231.04 115.7099,225.4333 146.6199,219.4333 " fill="none" id="librarian-to-UC7" style="stroke:#181818;stroke-width:1.0;"/><polygon fill="#181818" points="152.51,218.29,142.9127,216.0783,147.6016,219.2428,144.4371,223.9317,152.51,218.29" style="stroke:#181818;stroke-width:1.0;"/></g><!--link member to UC3--><g id="link_member_UC3"><path d="M63.27,411 C87.43,411 117.4,411 148.89,411 " fill="none" id="member-to-UC3" style="stroke:#181818;stroke-width:1.0;"/><polygon fill="#181818" points="154.89,411,145.89,407,149.89,411,145.89,415,154.89,411" style="stroke:#181818;stroke-width:1.0;"/></g><!--link member to UC4--><g id="link_member_UC4"><path d="M63.31,394.4 C74.19,388.36 86.93,381.84 99,377 C121.96,367.79 142.4874,361.5877 164.7974,355.8777 " fill="none" id="member-to-UC4" style="stroke:#181818;stroke-width:1.0;"/><polygon fill="#181818" points="170.61,354.39,160.8992,352.7464,165.7661,355.6297,162.8828,360.4966,170.61,354.39" style="stroke:#181818;stroke-width:1.0;"/></g><!--link member to UC5--><g id="link_member_UC5"><path d="M63.07,426.86 C74.02,432.75 86.88,439.17 99,444 C122.44,453.34 143.5097,459.7951 166.0697,465.7651 " fill="none" id="member-to-UC5" style="stroke:#181818;stroke-width:1.0;"/><polygon fill="#181818" points="171.87,467.3,164.1928,461.1307,167.0364,466.0209,162.1462,468.8645,171.87,467.3" style="stroke:#181818;stroke-width:1.0;"/></g><!--SRC=[PP5FJyCm3CNl_XHMxpkmTTiD2SO5YLsenjrhJHSrVoOd1LM8xqxfQ8NRdEBtVdcE4yll2LD0CVKbOMM4osI2XzWOVoKXXrSg6wgvI9rb_BN9rvO1g4n1C7inPo4nv3EaY7QiHll8ximoU6xO0amPU3lR7Sdt3HpxL7GniSClm7wraKkAZDb3LU5Z24qSOaw7Ess_iWiVh8Yr9fvZR3MmcKUaLhmYSaqKJ59U5B6TPzIclxtWlv5FXvs6tWn__W7un8cC7TFsy0qmFH-kLlV3f7DblL0s2oLVABk5iWUu_SUKeifSbrlu0G00]--></g></svg>