<?xml version="1.0" encoding="us-ascii" standalone="no"?><svg xmlns="http://www.w3.org/2000/svg" xmlns:xlink="http://www.w3.org/1999/xlink" contentStyleType="text/css" height="654px" preserveAspectRatio="none" style="width:800px;height:654px;background:#FFFFFF;" version="1.1" viewBox="0 0 800 654" width="800px" zoomAndPan="magnify"><defs/><g><!--class Library--><g id="elem_Library"><rect codeLine="3" fill="#F1F1F1" height="162.0781" id="Library" rx="2.5" ry="2.5" style="stroke:#181818;stroke-width:0.5;" width="361" x="7" y="15"/><ellipse cx="161.25" cy="31" fill="#ADD1B2" rx="11" ry="11" style="stroke:#181818;stroke-width:1.0;"/><path d="M164.2188,36.6406 Q163.6406,36.9375 163,37.0781 Q162.3594,37.2344 161.6563,37.2344 Q159.1563,37.2344 157.8281,35.5938 Q156.5156,33.9375 156.5156,30.8125 Q156.5156,27.6875 157.8281,26.0313 Q159.1563,24.375 161.6563,24.375 Q162.3594,24.375 163,24.5313 Q163.6563,24.6875 164.2188,24.9844 L164.2188,27.7031 Q163.5938,27.125 163,26.8594 Q162.4063,26.5781 161.7813,26.5781 Q160.4375,26.5781 159.75,27.6563 Q159.0625,28.7188 159.0625,30.8125 Q159.0625,32.9063 159.75,33.9844 Q160.4375,35.0469 161.7813,35.0469 Q162.4063,35.0469 163,34.7813 Q163.5938,34.5 164.2188,33.9219 L164.2188,36.6406 Z " fill="#000000"/><text fill="#000000" font-family="sans-serif" font-size="14" lengthAdjust="spacing" textLength="44" x="181.75" y="35.8467">Library</text><line style="stroke:#181818;stroke-width:0.5;" x1="8" x2="367" y1="47" y2="47"/><text fill="#000000" font-family="sans-serif" font-size="14" lengthAdjust="spacing" textLength="144" x="13" y="63.9951">-books : List&lt;Book&gt;</text><text fill="#000000" font-family="sans-serif" font-size="14" lengthAdjust="spacing" textLength="188" x="13" y="80.292">-members : List&lt;Member&gt;</text><line style="stroke:#181818;stroke-width:0.5;" x1="8" x2="367" y1="87.5938" y2="87.5938"/><text fill="#000000" font-family="sans-serif" font-size="14" lengthAdjust="spacing" textLength="209" x="13" y="104.5889">+addBook(book : Book) : void</text><text fill="#000000" font-family="sans-serif" font-size="14" lengthAdjust="spacing" textLength="251" x="13" y="120.8857">+removeBook(bookId : String) : void</text><text fill="#000000" font-family="sans-serif" font-size="14" lengthAdjust="spacing" textLength="301" x="13" y="137.1826">+searchBooks(query : String) : List&lt;Book&gt;</text><text fill="#000000" font-family="sans-serif" font-size="14" lengthAdjust="spacing" textLength="301" x="13" y="153.4795">+registerMember(member : Member) : void</text><text fill="#000000" font-family="sans-serif" font-size="14" lengthAdjust="spacing" textLength="349" x="13" y="169.7764">+viewMemberDetails(memberId : String) : Member</text></g><!--class Book--><g id="elem_Book"><rect codeLine="13" fill="#F1F1F1" height="162.0781" id="Book" rx="2.5" ry="2.5" style="stroke:#181818;stroke-width:0.5;" width="153" x="312" y="485"/><ellipse cx="366.25" cy="501" fill="#ADD1B2" rx="11" ry="11" style="stroke:#181818;stroke-width:1.0;"/><path d="M369.2188,506.6406 Q368.6406,506.9375 368,507.0781 Q367.3594,507.2344 366.6563,507.2344 Q364.1563,507.2344 362.8281,505.5938 Q361.5156,503.9375 361.5156,500.8125 Q361.5156,497.6875 362.8281,496.0313 Q364.1563,494.375 366.6563,494.375 Q367.3594,494.375 368,494.5313 Q368.6563,494.6875 369.2188,494.9844 L369.2188,497.7031 Q368.5938,497.125 368,496.8594 Q367.4063,496.5781 366.7813,496.5781 Q365.4375,496.5781 364.75,497.6563 Q364.0625,498.7188 364.0625,500.8125 Q364.0625,502.9063 364.75,503.9844 Q365.4375,505.0469 366.7813,505.0469 Q367.4063,505.0469 368,504.7813 Q368.5938,504.5 369.2188,503.9219 L369.2188,506.6406 Z " fill="#000000"/><text fill="#000000" font-family="sans-serif" font-size="14" lengthAdjust="spacing" textLength="36" x="386.75" y="505.8467">Book</text><line style="stroke:#181818;stroke-width:0.5;" x1="313" x2="464" y1="517" y2="517"/><text fill="#000000" font-family="sans-serif" font-size="14" lengthAdjust="spacing" textLength="105" x="318" y="533.9951">-bookId : String</text><text fill="#000000" font-family="sans-serif" font-size="14" lengthAdjust="spacing" textLength="83" x="318" y="550.292">-title : String</text><text fill="#000000" font-family="sans-serif" font-size="14" lengthAdjust="spacing" textLength="103" x="318" y="566.5889">-author : String</text><text fill="#000000" font-family="sans-serif" font-size="14" lengthAdjust="spacing" textLength="122" x="318" y="582.8857">-publisher : String</text><text fill="#000000" font-family="sans-serif" font-size="14" lengthAdjust="spacing" textLength="132" x="318" y="599.1826">-isIssued : Boolean</text><line style="stroke:#181818;stroke-width:0.5;" x1="313" x2="464" y1="606.4844" y2="606.4844"/><text fill="#000000" font-family="sans-serif" font-size="14" lengthAdjust="spacing" textLength="100" x="318" y="623.4795">+issue() : void</text><text fill="#000000" font-family="sans-serif" font-size="14" lengthAdjust="spacing" textLength="141" x="318" y="639.7764">+returnBook() : void</text></g><!--class Member--><g id="elem_Member"><rect codeLine="23" fill="#F1F1F1" height="145.7813" id="Member" rx="2.5" ry="2.5" style="stroke:#181818;stroke-width:0.5;" width="313" x="232" y="262"/><ellipse cx="355.75" cy="278" fill="#ADD1B2" rx="11" ry="11" style="stroke:#181818;stroke-width:1.0;"/><path d="M358.7188,283.6406 Q358.1406,283.9375 357.5,284.0781 Q356.8594,284.2344 356.1563,284.2344 Q353.6563,284.2344 352.3281,282.5938 Q351.0156,280.9375 351.0156,277.8125 Q351.0156,274.6875 352.3281,273.0313 Q353.6563,271.375 356.1563,271.375 Q356.8594,271.375 357.5,271.5313 Q358.1563,271.6875 358.7188,271.9844 L358.7188,274.7031 Q358.0938,274.125 357.5,273.8594 Q356.9063,273.5781 356.2813,273.5781 Q354.9375,273.5781 354.25,274.6563 Q353.5625,275.7188 353.5625,277.8125 Q353.5625,279.9063 354.25,280.9844 Q354.9375,282.0469 356.2813,282.0469 Q356.9063,282.0469 357.5,281.7813 Q358.0938,281.5 358.7188,280.9219 L358.7188,283.6406 Z " fill="#000000"/><text fill="#000000" font-family="sans-serif" font-size="14" lengthAdjust="spacing" textLength="57" x="376.25" y="282.8467">Member</text><line style="stroke:#181818;stroke-width:0.5;" x1="233" x2="544" y1="294" y2="294"/><text fill="#000000" font-family="sans-serif" font-size="14" lengthAdjust="spacing" textLength="128" x="238" y="310.9951">-memberId : String</text><text fill="#000000" font-family="sans-serif" font-size="14" lengthAdjust="spacing" textLength="97" x="238" y="327.292">-name : String</text><text fill="#000000" font-family="sans-serif" font-size="14" lengthAdjust="spacing" textLength="157" x="238" y="343.5889">-contactDetails : String</text><line style="stroke:#181818;stroke-width:0.5;" x1="233" x2="544" y1="350.8906" y2="350.8906"/><text fill="#000000" font-family="sans-serif" font-size="14" lengthAdjust="spacing" textLength="301" x="238" y="367.8857">+searchBooks(query : String) : List&lt;Book&gt;</text><text fill="#000000" font-family="sans-serif" font-size="14" lengthAdjust="spacing" textLength="220" x="238" y="384.1826">+issueBook(book : Book) : void</text><text fill="#000000" font-family="sans-serif" font-size="14" lengthAdjust="spacing" textLength="225" x="238" y="400.4795">+returnBook(book : Book) : void</text></g><!--class Librarian--><g id="elem_Librarian"><rect codeLine="32" fill="#F1F1F1" height="178.375" id="Librarian" rx="2.5" ry="2.5" style="stroke:#181818;stroke-width:0.5;" width="373" x="420" y="7"/><ellipse cx="573.75" cy="23" fill="#ADD1B2" rx="11" ry="11" style="stroke:#181818;stroke-width:1.0;"/><path d="M576.7188,28.6406 Q576.1406,28.9375 575.5,29.0781 Q574.8594,29.2344 574.1563,29.2344 Q571.6563,29.2344 570.3281,27.5938 Q569.0156,25.9375 569.0156,22.8125 Q569.0156,19.6875 570.3281,18.0313 Q571.6563,16.375 574.1563,16.375 Q574.8594,16.375 575.5,16.5313 Q576.1563,16.6875 576.7188,16.9844 L576.7188,19.7031 Q576.0938,19.125 575.5,18.8594 Q574.9063,18.5781 574.2813,18.5781 Q572.9375,18.5781 572.25,19.6563 Q571.5625,20.7188 571.5625,22.8125 Q571.5625,24.9063 572.25,25.9844 Q572.9375,27.0469 574.2813,27.0469 Q574.9063,27.0469 575.5,26.7813 Q576.0938,26.5 576.7188,25.9219 L576.7188,28.6406 Z " fill="#000000"/><text fill="#000000" font-family="sans-serif" font-size="14" lengthAdjust="spacing" textLength="57" x="594.25" y="27.8467">Librarian</text><line style="stroke:#181818;stroke-width:0.5;" x1="421" x2="792" y1="39" y2="39"/><text fill="#000000" font-family="sans-serif" font-size="14" lengthAdjust="spacing" textLength="138" x="426" y="55.9951">-employeeId : String</text><text fill="#000000" font-family="sans-serif" font-size="14" lengthAdjust="spacing" textLength="97" x="426" y="72.292">-name : String</text><line style="stroke:#181818;stroke-width:0.5;" x1="421" x2="792" y1="79.5938" y2="79.5938"/><text fill="#000000" font-family="sans-serif" font-size="14" lengthAdjust="spacing" textLength="209" x="426" y="96.5889">+addBook(book : Book) : void</text><text fill="#000000" font-family="sans-serif" font-size="14" lengthAdjust="spacing" textLength="251" x="426" y="112.8857">+removeBook(bookId : String) : void</text><text fill="#000000" font-family="sans-serif" font-size="14" lengthAdjust="spacing" textLength="356" x="426" y="129.1826">+issueBook(book : Book, member : Member) : void</text><text fill="#000000" font-family="sans-serif" font-size="14" lengthAdjust="spacing" textLength="361" x="426" y="145.4795">+returnBook(book : Book, member : Member) : void</text><text fill="#000000" font-family="sans-serif" font-size="14" lengthAdjust="spacing" textLength="301" x="426" y="161.7764">+registerMember(member : Member) : void</text><text fill="#000000" font-family="sans-serif" font-size="14" lengthAdjust="spacing" textLength="349" x="426" y="178.0732">+viewMemberDetails(memberId : String) : Member</text></g><!--reverse link Library to Book--><g id="link_Library_Book"><path codeLine="43" d="M178.1925,188.9925 C174.6525,254.5025 178.59,335.82 214.5,408 C236.25,451.71 275.84,488.94 311.77,516.16 " fill="none" id="Library-backto-Book" style="stroke:#181818;stroke-width:1.0;"/><polygon fill="#181818" points="178.84,177.01,174.5221,182.7854,178.1925,188.9925,182.5104,183.2171,178.84,177.01" style="stroke:#181818;stroke-width:1.0;"/><text fill="#000000" font-family="sans-serif" font-size="13" lengthAdjust="spacing" textLength="8" x="169.6729" y="197.2389">1</text><text fill="#000000" font-family="sans-serif" font-size="13" lengthAdjust="spacing" textLength="36" x="267.9252" y="508.4807">many</text></g><!--reverse link Library to Member--><g id="link_Library_Member"><path codeLine="44" d="M263.3118,186.3918 C286.5418,213.7818 304.61,235.08 327.27,261.81 " fill="none" id="Library-backto-Member" style="stroke:#181818;stroke-width:1.0;"/><polygon fill="#181818" points="255.55,177.24,256.3803,184.4031,263.3118,186.3918,262.4815,179.2286,255.55,177.24" style="stroke:#181818;stroke-width:1.0;"/><text fill="#000000" font-family="sans-serif" font-size="13" lengthAdjust="spacing" textLength="8" x="253.2545" y="197.2127">1</text><text fill="#000000" font-family="sans-serif" font-size="13" lengthAdjust="spacing" textLength="36" x="283.4708" y="250.9513">many</text></g><!--link Member to Book--><g id="link_Member_Book"><path codeLine="45" d="M388.5,408.14 C388.5,432.53 388.5,453.9 388.5,478.86 " fill="none" id="Member-to-Book" style="stroke:#181818;stroke-width:1.0;"/><polygon fill="#181818" points="388.5,484.86,392.5,475.86,388.5,479.86,384.5,475.86,388.5,484.86" style="stroke:#181818;stroke-width:1.0;"/><text fill="#000000" font-family="sans-serif" font-size="13" lengthAdjust="spacing" textLength="40" x="389.5" y="451.0669">issues</text><text fill="#000000" font-family="sans-serif" font-size="13" lengthAdjust="spacing" textLength="8" x="380.1188" y="427.9096">1</text><text fill="#000000" font-family="sans-serif" font-size="13" lengthAdjust="spacing" textLength="36" x="350.8969" y="474.0348">many</text></g><!--link Librarian to Book--><g id="link_Librarian_Book"><path codeLine="46" d="M609.75,185.04 C608.54,250.17 599.1,339.15 562.5,408 C539.77,450.75 505.3344,484.02 469.8844,511.31 " fill="none" id="Librarian-to-Book" style="stroke:#181818;stroke-width:1.0;"/><polygon fill="#181818" points="465.13,514.97,474.7016,512.6496,469.092,511.92,469.8216,506.3104,465.13,514.97" style="stroke:#181818;stroke-width:1.0;"/><text fill="#000000" font-family="sans-serif" font-size="13" lengthAdjust="spacing" textLength="60" x="604.5" y="339.5669">manages</text><text fill="#000000" font-family="sans-serif" font-size="13" lengthAdjust="spacing" textLength="8" x="601.6855" y="205.3929">1</text><text fill="#000000" font-family="sans-serif" font-size="13" lengthAdjust="spacing" textLength="36" x="472.9665" y="507.1921">many</text></g><!--link Librarian to Member--><g id="link_Librarian_Member"><path codeLine="47" d="M525.32,185.25 C502.08,210.52 481.0908,233.333 458.8608,257.513 " fill="none" id="Librarian-to-Member" style="stroke:#181818;stroke-width:1.0;"/><polygon fill="#181818" points="454.8,261.93,463.8359,258.0117,458.184,258.2492,457.9465,252.5973,454.8,261.93" style="stroke:#181818;stroke-width:1.0;"/><text fill="#000000" font-family="sans-serif" font-size="13" lengthAdjust="spacing" textLength="60" x="498.5" y="228.0669">manages</text><text fill="#000000" font-family="sans-serif" font-size="13" lengthAdjust="spacing" textLength="8" x="510.266" y="205.319">1</text><text fill="#000000" font-family="sans-serif" font-size="13" lengthAdjust="spacing" textLength="36" x="423.7809" y="250.7062">many</text></g><!--SRC=[jLFBReCm4Bpp5HOd-a1ghrKLgLKlaPfJlc21LM85szGsgT8g_zurDcu2D6cabWlipjYUMGzcmsK36WGhQp3coLhDYzRYl5HooJ-GtIL9Xx1NNcZGE_QPC7foLYYrCUo1-iO-FbCn2u10KQ2EqA8hFNZ3eAeSDtEhYU6-h-YzLRmA38r2RJ6IvXN1Ir8bLmEYGT3bsX5DzjOYIJia3cIvVLVKGktrP5ub4Nqzs7lByTq3BsY1roRm1sey9TdtCtBd7GteW1-wbjiQXqrexLhfORTfYvgRDOu0RkR6j5Zv0TO8CiZchfsD1cfRBRk1HYGgzWwYvf7Bq9SWHg8f8HPA6mPqZ5vyEvtoiyc8HgP8- -EaSf3H5egcLZl4tnZxqunEshfbfyCtxVFygl_CT__tf_SfkyvpbWgGkxGJzXCM5eU4EJ3FPuSBwO1kFYRvlh5f6XMmEiLRz6vxvXS0]--></g></svg>